<svg width="165" height="33" viewBox="0 0 165 33" fill="none" xmlns="http://www.w3.org/2000/svg">
<path d="M39.6587 19.2401L45.9478 18.4481V20.987C45.9031 20.9934 45.8616 20.9966 45.8169 21.003C45.8584 20.9998 45.9031 20.9934 45.9478 20.9902V21.6545C44.4321 21.795 42.9324 21.9004 41.4519 21.9771C42.9324 21.9579 44.4353 21.91 45.9478 21.827V22.3667C43.2898 22.5104 40.6797 22.5455 38.1303 22.5104C39.3109 22.5743 40.501 22.6254 41.7072 22.6573C43.1047 22.6924 44.5183 22.7084 45.9478 22.6924V23.1268C44.5151 23.1427 43.0984 23.1268 41.6976 23.0884C39.5725 23.031 37.4826 22.9224 35.4373 22.7755C37.0071 22.9511 38.5961 23.1108 40.2075 23.2481C42.0933 23.4046 44.0109 23.526 45.9478 23.5962V23.9347C43.9982 23.8645 42.0709 23.7399 40.1788 23.5834C37.6995 23.3759 35.2777 23.1108 32.9101 22.8138C34.8533 23.1331 36.8284 23.4397 38.8386 23.7208C41.1647 24.0433 43.5355 24.3371 45.9509 24.5511V24.8034C43.5227 24.5894 41.1424 24.2956 38.8067 23.9699C35.9574 23.5707 33.1814 23.1268 30.4756 22.6573C32.808 23.1395 35.1884 23.6218 37.6166 24.088C40.3351 24.6086 43.1143 25.1196 45.9541 25.5507V25.7296C43.1047 25.2984 40.3128 24.7842 37.5847 24.2637C34.5566 23.6825 31.6051 23.0725 28.7302 22.4785C28.0761 22.3411 27.489 22.2038 27.0391 22.092L27.0454 21.993C27.2209 22.0218 27.4188 22.0537 27.6294 22.092C27.4092 22.0409 27.2146 21.9962 27.0454 21.9547V21.8717C27.2273 21.8972 27.4315 21.926 27.6613 21.9579C27.422 21.9068 27.2178 21.8589 27.0518 21.8174V21.7567C27.2497 21.7791 27.4953 21.811 27.7921 21.8461C27.4794 21.7823 27.2305 21.7248 27.0614 21.6832V21.6481C27.2624 21.6705 27.5687 21.7024 27.9644 21.7375C27.8431 21.7152 27.7315 21.696 27.6326 21.6769C27.3518 21.613 27.1603 21.5683 27.071 21.5491V21.5427C27.1635 21.5523 27.3581 21.5715 27.6453 21.597C27.7857 21.6066 27.9516 21.6162 28.1303 21.629C28.0825 21.6226 28.0314 21.613 27.9867 21.6066C27.7378 21.5715 27.5496 21.5204 27.4188 21.498C27.2911 21.4693 27.2241 21.4565 27.2241 21.4565C27.2241 21.4565 27.2943 21.4629 27.4252 21.4725C27.556 21.4789 27.7474 21.5076 27.9995 21.5108C28.0984 21.514 28.2133 21.5204 28.3313 21.5236C28.0474 21.4884 27.8272 21.4565 27.6772 21.4214C27.5241 21.3894 27.4411 21.3735 27.4411 21.3735C27.4411 21.3735 27.5241 21.3799 27.6804 21.3894C27.8368 21.4022 28.0665 21.4086 28.3664 21.4086C28.4047 21.4086 28.4494 21.4086 28.4877 21.4086C27.9453 21.3543 27.6517 21.2904 27.6517 21.2904C27.6517 21.2904 28.0314 21.316 28.7142 21.2904C28.5036 21.2777 28.325 21.2617 28.1909 21.2521C27.9772 21.2234 27.8655 21.2074 27.8655 21.2074C27.8655 21.2074 27.9772 21.2074 28.1909 21.2074C28.3632 21.1946 28.6026 21.1882 28.8993 21.1659C28.7238 21.1627 28.5738 21.1563 28.4558 21.1531C28.3313 21.1531 28.2356 21.1403 28.175 21.1339C28.1112 21.1276 28.0793 21.1244 28.0793 21.1244C28.0793 21.1244 28.5962 21.1052 29.5279 20.9838C29.614 20.9743 29.7066 20.9615 29.7991 20.9487C28.8163 21.0222 28.293 21.0413 28.293 21.0413C28.293 21.0413 30.2905 20.888 33.8578 20.3196C35.4819 20.0577 37.4347 19.7096 39.6651 19.2465L39.6587 19.2401ZM81.522 15.4813L81.8028 15.4174C83.4109 15.0246 85.0861 14.8649 86.7645 14.8234L87.3931 14.801H88.0248L89.2884 14.8074C90.1308 14.8489 90.9763 14.8585 91.8187 14.9288C92.6611 14.9958 93.5066 15.0437 94.349 15.1491C95.1914 15.2385 96.0337 15.328 96.8761 15.4557C99.7 15.8453 102.514 16.385 105.3 17.0397V16.6916C102.527 16.0433 99.7319 15.51 96.9208 15.1204C96.0784 14.9926 95.2297 14.9032 94.3841 14.8106C93.5385 14.7052 92.6898 14.6573 91.841 14.5902C90.9955 14.52 90.1435 14.5104 89.298 14.4689L88.0248 14.4625H87.3899L86.7549 14.4848C85.0638 14.5296 83.3695 14.6892 81.7198 15.0884L81.5635 15.1236L81.4869 15.1427C81.4582 15.1523 81.4454 15.1491 81.3912 15.1683L81.1072 15.3024L81.1008 15.6761L81.2444 15.609L81.522 15.4781V15.4813ZM81.4965 14.092L81.5316 14.0761L81.5858 14.0697L82.1857 13.9835C83.7875 13.7695 85.4243 13.7375 87.0612 13.7695C90.3382 13.8653 93.6247 14.2581 96.8889 14.8074C99.7095 15.2864 102.514 15.8996 105.297 16.6054L105.277 14.7563C105.277 14.7563 96.5315 11.5723 92.4473 8.67247C91.104 8.10401 89.7862 7.5068 88.5066 6.86808C86.3752 5.81099 84.3618 4.62936 82.3516 3.43495L81.7964 3.1092L81.6145 3.00062L81.522 2.94632L81.4773 2.92078C81.4773 2.92078 81.4454 2.93674 81.4326 2.94313L81.2922 3.02616L81.2476 5.98345C81.2922 5.9579 81.3369 5.93555 81.3816 5.91L81.4901 5.84932L81.4965 5.84613L81.7071 5.94513L82.6164 6.36349C82.8366 6.46249 83.06 6.5615 83.2833 6.6605C82.8781 6.52317 82.4665 6.38585 82.0612 6.24533L81.506 6.05371C81.4741 6.04732 81.4422 6.02497 81.4135 6.02816L81.3273 6.07607L81.2444 6.12078L81.2252 7.35351L81.4167 7.25132L81.5028 7.20341L81.5156 7.19702C81.5156 7.19702 81.5156 7.19702 81.522 7.19702L81.7102 7.2609C83.0631 7.72716 84.4352 8.19024 85.8168 8.64692C84.5532 8.32756 83.2897 8.01459 82.0389 7.72078L81.5188 7.59942L81.4167 7.57387C81.3848 7.57387 81.3561 7.60261 81.3242 7.61539L81.222 7.66968L81.2061 8.72357L81.3656 8.63734L81.5316 8.55112L81.8251 8.62138C83.9949 9.13235 86.1806 9.68165 88.3854 10.2629C88.5641 10.3108 88.7491 10.3587 88.931 10.4066C88.6056 10.3395 88.2769 10.2661 87.9514 10.199C86.4709 9.89882 84.984 9.63375 83.4971 9.40062C83.1238 9.34632 82.7536 9.28565 82.3803 9.23774L81.8219 9.16429L81.4518 9.11638C81.4294 9.11638 81.4039 9.10361 81.3848 9.11638L81.321 9.14832L81.1933 9.21219L81.1806 10.1032C81.2603 10.0617 81.3401 10.0202 81.4199 9.97866L81.5316 9.92118L81.7166 9.94672L82.2686 10.0202C82.6356 10.0681 83.0057 10.1288 83.3727 10.1831C84.8436 10.413 86.3178 10.6781 87.7919 10.9751C89.4352 11.3072 91.0784 11.6745 92.7217 12.0609C91.0401 11.7351 89.3554 11.4413 87.6675 11.2018C86.1199 10.9783 84.5724 10.8058 83.0153 10.71C82.626 10.6781 82.2367 10.6685 81.8475 10.6557L81.5571 10.6461L81.4199 10.6397C81.3688 10.6334 81.3337 10.6749 81.2859 10.6908L81.1678 10.7483L81.1582 11.4892L81.4295 11.3551L81.5347 11.304C81.5347 11.304 81.5347 11.304 81.5411 11.304L81.8283 11.3136C82.2112 11.3264 82.5909 11.3359 82.9738 11.3679C84.5054 11.4637 86.0402 11.633 87.5717 11.8565C90.9157 12.3324 94.2501 13.003 97.5749 13.7886C94.1926 13.0892 90.7881 12.5527 87.3707 12.2525C85.7658 12.128 84.1608 12.0417 82.5558 12.0928L81.9527 12.128L81.6528 12.1439L81.5028 12.1535C81.4709 12.1599 81.4135 12.1471 81.3688 12.1727L81.2635 12.2238L81.1487 12.2813L81.1391 12.888L81.5028 12.7092L81.5347 12.6932H81.5475L81.6943 12.6837L81.9878 12.6677L82.575 12.6357C84.1512 12.5846 85.7402 12.6677 87.3292 12.7922C92.8142 13.2745 98.2928 14.3763 103.698 15.7751C101.464 15.2417 99.215 14.7723 96.9559 14.389C93.6757 13.8365 90.3701 13.4437 87.0676 13.3479C85.4148 13.316 83.7619 13.3479 82.1219 13.5683L81.5092 13.6577L81.4135 13.6705C81.388 13.6737 81.3656 13.6896 81.3401 13.6992L81.305 13.7152L81.1678 13.7823L81.1263 13.8014L81.1199 14.2868L81.3561 14.1751L81.4933 14.108L81.4965 14.092ZM163.548 19.9715C162.61 20.096 161.247 20.2174 159.559 20.31C157.871 20.4058 155.855 20.4601 153.612 20.4825C152.492 20.5048 151.311 20.4952 150.089 20.5048C149.451 20.5048 148.797 20.4984 148.136 20.4952C147.686 20.4856 147.224 20.4761 146.758 20.4633V23.5675C148.044 23.4813 149.314 23.3727 150.565 23.2417C149.69 23.3503 148.813 23.4461 147.923 23.526C147.536 23.5643 147.147 23.593 146.758 23.625V23.9635C147.157 23.9316 147.556 23.8996 147.951 23.8645C150.587 23.625 153.159 23.2737 155.628 22.7882C153.503 23.2609 151.305 23.625 149.055 23.9028C148.296 23.9922 147.527 24.0689 146.758 24.1359V24.3882C147.54 24.3212 148.315 24.2445 149.087 24.1519C152.457 23.7367 155.714 23.1268 158.774 22.2517C156.018 23.1395 153.092 23.8038 150.06 24.2573C148.972 24.417 147.871 24.5543 146.758 24.6661V24.8417C147.878 24.7268 148.988 24.5894 150.086 24.4298C154.569 23.7591 158.829 22.6445 162.642 20.9998C163.321 20.6996 163.918 20.3898 164.336 20.1439C164.754 19.9012 164.997 19.7288 165 19.7288C165 19.7288 164.489 19.8565 163.551 19.9747L163.548 19.9715ZM121.624 22.7595C119.25 22.0377 116.965 20.987 114.563 20.2334C113.558 19.8884 112.537 19.5787 111.512 19.2912C111.522 19.3551 111.535 19.419 111.544 19.4828C112.54 19.7639 113.532 20.0641 114.508 20.3994C116.898 21.1531 119.18 22.2006 121.573 22.9288C126.343 24.3946 131.276 25.0302 136.078 25.193C136.452 25.2058 136.822 25.209 137.192 25.2154C137.233 25.1579 137.275 25.1004 137.313 25.0429C136.905 25.0365 136.493 25.0302 136.085 25.0174C131.292 24.8545 126.375 24.219 121.624 22.7595ZM96.7038 16.6629C93.1556 16.4138 89.5851 16.417 86.0816 16.9056C84.3586 17.1739 82.642 17.5795 81.0593 18.3172V18.512C81.0593 18.512 81.0721 18.5056 81.0785 18.5024C82.6611 17.7583 84.3714 17.3527 86.1072 17.0813C89.5915 16.5958 93.1493 16.5926 96.691 16.8417C99.5755 17.0493 102.457 17.4453 105.306 17.9978V17.819C102.46 17.2665 99.5851 16.8769 96.7038 16.6661V16.6629ZM66.4901 23.8389C63.2227 24.7747 59.9203 25.4581 56.6337 25.8413C56.2221 25.886 55.8105 25.9276 55.4021 25.9723C54.9905 26.0042 54.5821 26.0361 54.1704 26.0681C53.762 26.1032 53.3504 26.116 52.942 26.1351C52.5336 26.1543 52.1251 26.1767 51.7199 26.1607C51.5923 26.1607 51.4678 26.1479 51.3434 26.1415L51.2604 26.314C51.4136 26.3204 51.5667 26.3332 51.7199 26.3363C52.1315 26.3523 52.5399 26.33 52.9516 26.3108C53.36 26.2916 53.7716 26.2789 54.1832 26.2437C54.5948 26.2118 55.0064 26.1799 55.418 26.1479C55.8297 26.1032 56.2413 26.0617 56.6529 26.017C59.9522 25.6306 63.261 24.9439 66.538 24.0082C68.7013 23.4014 70.8488 22.6797 72.9834 21.8844L72.91 21.7248C70.7849 22.5168 68.6439 23.2353 66.4901 23.8389ZM56.3051 21.1531C57.7697 20.8689 59.2215 20.524 60.6956 20.1854C63.6344 19.4988 66.5986 18.6972 69.5437 17.7072C69.9713 17.5635 70.3957 17.407 70.8232 17.2569L70.5935 16.7651C70.1851 16.9088 69.7798 17.0589 69.3714 17.193C66.4486 18.1767 63.5003 18.9719 60.5712 19.6585C59.1066 19.997 57.6484 20.3451 56.1998 20.623C55.4755 20.7635 54.7576 20.9136 54.03 21.0126C53.9471 21.0254 53.8673 21.0381 53.7844 21.0509L53.5036 21.6417C53.7078 21.6098 53.912 21.5779 54.1162 21.5491C54.8469 21.4501 55.5776 21.3 56.3083 21.1563L56.3051 21.1531ZM69.3746 14.1623L68.9821 13.3224C67.3293 13.9515 65.6765 14.5296 64.03 15.0565C63.9215 15.0916 63.8162 15.1236 63.7077 15.1587C64.2725 14.9671 64.8373 14.7723 65.4021 14.5711C66.5795 14.1591 67.7601 13.712 68.9439 13.2393L67.7856 10.7611L56.6178 15.1268L54.9554 18.6014C58.0345 17.8637 61.1583 16.9631 64.314 15.9379C65.9924 15.4014 67.6835 14.8074 69.3746 14.1655V14.1623ZM111.5 15.9252L139.26 20.821C139.26 20.821 139.033 21.8493 138.347 23.2577C136.423 23.1747 134.48 23.0373 132.517 22.8553C130.338 22.6445 128.136 22.3699 125.932 22.009C124.505 21.7727 123.076 21.5012 121.653 21.1723C123.379 21.6034 125.124 21.9355 126.863 22.2102C129.119 22.5647 131.372 22.817 133.605 22.9958C135.198 23.1236 136.78 23.2066 138.347 23.2577C138.28 23.3982 138.207 23.5387 138.13 23.6856C136.621 23.6314 135.102 23.5483 133.57 23.427C131.33 23.2449 129.065 22.9926 126.796 22.6349C124.528 22.2773 122.249 21.8238 120.003 21.1787C118.905 20.8593 117.83 20.4825 116.758 20.1056C118.073 20.5815 119.381 21.0637 120.705 21.4501C122.98 22.1144 125.303 22.5807 127.616 22.9351C129.933 23.2864 132.246 23.5196 134.537 23.6697C135.718 23.7463 136.889 23.7974 138.057 23.8262C137.996 23.9347 137.935 24.0465 137.872 24.1583C136.758 24.1264 135.641 24.0785 134.515 24.005C132.214 23.8549 129.895 23.6218 127.565 23.2673C125.239 22.9128 122.907 22.4433 120.609 21.7727C118.306 21.0988 116.101 20.1631 113.813 19.4445L112.103 18.8856L111.436 18.6876C111.423 18.5631 111.413 18.4449 111.404 18.3268L112.083 18.528L111.691 18.4002L111.404 18.314C111.327 17.3527 111.369 16.5224 111.503 15.9252H111.5ZM113.685 19.0485L113.918 19.1252C114.075 19.1731 114.231 19.2274 114.387 19.2785C114.154 19.1986 113.918 19.1252 113.685 19.0485ZM121.206 22.1176C118.88 21.431 116.627 20.4345 114.276 19.6936L112.517 19.122L111.445 18.8122C111.455 18.9016 111.468 18.991 111.48 19.0836L112.444 19.3647L114.196 19.9363C116.535 20.6741 118.781 21.6673 121.133 22.3603C125.823 23.7527 130.648 24.3531 135.351 24.5958C136.091 24.631 136.828 24.6533 137.562 24.6693C137.616 24.5862 137.664 24.5032 137.715 24.4202C136.933 24.4042 136.152 24.3819 135.364 24.3435C130.676 24.1008 125.868 23.5004 121.206 22.1176ZM57.0262 19.0038C57.6995 18.8314 58.3759 18.6557 59.0556 18.4832C60.4116 18.1256 61.7614 17.7391 63.127 17.3431C65.3574 16.6948 67.6005 15.9699 69.8341 15.1491L69.499 14.4337C67.307 15.2353 65.1021 15.9475 62.9069 16.5862C61.5508 16.9823 60.1947 17.3687 58.8513 17.7232C58.1781 17.8956 57.508 18.0681 56.8411 18.2405C56.1998 18.397 55.5584 18.5312 54.9203 18.6749L54.4927 19.5659C54.6618 19.5308 54.8309 19.4988 55 19.4605C55.6733 19.3072 56.3498 19.1667 57.0262 19.0038ZM55.0479 22.4593C56.5635 22.223 58.0632 21.91 59.5852 21.6002C62.6229 20.9711 65.6828 20.2142 68.7205 19.2529C69.598 18.9783 70.4722 18.6844 71.3433 18.3779L71.1583 17.9819C70.3063 18.2821 69.448 18.5695 68.5897 18.8377C65.568 19.7926 62.5208 20.5495 59.4959 21.1755C57.9834 21.4821 56.4742 21.7982 54.9777 22.0314C54.6044 22.0888 54.2311 22.1463 53.8577 22.207C53.6344 22.2326 53.4142 22.2549 53.1941 22.2805L52.9739 22.7403C53.2866 22.7052 53.6025 22.6701 53.9152 22.6349C54.2917 22.5775 54.6714 22.5168 55.0479 22.4593ZM58.545 23.0278C61.672 22.4657 64.8245 21.7439 67.9515 20.8018C69.2661 20.4122 70.5744 19.9811 71.8762 19.518L71.7326 19.2114C70.4435 19.6681 69.1512 20.096 67.8526 20.4793C64.7384 21.415 61.6018 22.1367 58.4844 22.6956C56.9273 22.9703 55.3702 23.2417 53.829 23.4174C53.4174 23.4685 53.0026 23.5068 52.591 23.5387L52.4251 23.8868C52.9069 23.8549 53.3887 23.8134 53.8705 23.7527C55.4308 23.5739 56.9815 23.3024 58.5482 23.0278H58.545ZM70.3191 16.187L70.0383 15.5866C67.2687 16.5767 64.4799 17.4038 61.7039 18.132C59.2279 18.7803 56.7837 19.3966 54.3523 19.8565L54.0013 20.5878C56.6146 20.1152 59.2374 19.4573 61.873 18.7675C64.6809 18.0329 67.5112 17.193 70.3191 16.187ZM53.963 24.9439C54.3619 24.8992 54.7639 24.8609 55.1628 24.8098C55.9637 24.7108 56.7678 24.6086 57.5686 24.484C60.785 24.0018 64.0173 23.3024 67.224 22.3731C68.9662 21.8781 70.6988 21.3064 72.4218 20.6836L72.3165 20.4569C70.6063 21.0765 68.8864 21.6417 67.157 22.1335C63.9598 23.0597 60.7403 23.7559 57.5335 24.2381C56.7327 24.3627 55.9318 24.4649 55.1341 24.5639C54.7352 24.615 54.3364 24.6533 53.9375 24.698C53.5387 24.7491 53.143 24.7747 52.7473 24.7938C52.4921 24.8098 52.2368 24.813 51.9816 24.8194L51.8603 25.0749C52.1602 25.0685 52.4634 25.0621 52.7665 25.0429C53.1685 25.0206 53.5706 24.995 53.9694 24.9439H53.963ZM82.6515 16.5351C83.0663 16.4361 83.4843 16.3531 83.9023 16.2605C84.3203 16.1679 84.7479 16.1328 85.1723 16.0625C85.386 16.0337 85.5966 15.9986 85.8104 15.9763L86.4518 15.922C89.8787 15.6186 93.3567 15.7591 96.8123 16.1264C99.6585 16.4298 102.495 16.896 105.303 17.4996V17.2409C102.501 16.6437 99.6744 16.1775 96.8378 15.8773C93.3726 15.51 89.8819 15.3663 86.4294 15.6729L85.7817 15.7272C85.5679 15.7495 85.3541 15.7846 85.1372 15.8134C84.7096 15.8805 84.2788 15.9188 83.8545 16.0114C83.4333 16.104 83.0057 16.187 82.5877 16.2892C82.1697 16.4234 81.7645 16.532 81.3401 16.6884C81.254 16.73 81.1678 16.7683 81.0816 16.8066V17.0844C81.1997 17.027 81.3242 16.9727 81.4454 16.9152C81.8251 16.7779 82.2495 16.6597 82.6483 16.532L82.6515 16.5351Z" fill="#00A5D9"/>
<path fill-rule="evenodd" clip-rule="evenodd" d="M3.85449 29.894C6.04338 31.6218 8.74599 32.4968 11.8857 32.4968V32.5C14.9298 32.5 17.4377 31.708 19.3363 30.1431C21.3146 28.5176 22.3165 26.3651 22.3165 23.7495C22.3165 19.8533 20.0989 17.177 15.5232 15.5643L10.4531 13.8429C8.31204 13.1691 6.41989 12.1663 5.63176 11.288C4.9266 10.5024 4.45755 9.70718 4.45755 8.38503C4.45755 6.76267 5.00956 5.51078 6.14229 4.55589C7.34203 3.54671 8.93743 3.05489 10.9859 3.05489C13.0344 3.05489 14.6617 3.56587 15.9636 4.61337C17.2686 5.66727 18.0791 7.07884 18.4364 8.93114L20.9444 8.44571C20.4754 6.01218 19.3363 4.0513 17.5654 2.62375C15.8168 1.21537 13.6343 0.5 10.9859 0.5C8.33756 0.5 6.15506 1.20579 4.49903 2.6014C2.776 4.0513 1.90491 6.10479 1.90491 8.38503C1.90491 10.6653 2.88129 12.0449 3.73324 12.9934C4.83725 14.223 7.06443 15.4525 9.65855 16.2669L14.6873 17.9754C19.1863 19.5595 19.7638 21.9068 19.7638 23.7463C19.7638 25.5858 19.0938 27.0325 17.7153 28.1663C16.2635 29.3607 14.4767 29.9419 11.8857 29.9419C9.2948 29.9419 7.18568 29.2713 5.43393 27.8884C3.74281 26.5535 2.79514 24.8449 2.5335 22.6573L0 22.9607C0.341416 25.8094 1.63688 28.1439 3.85449 29.894ZM45.9511 1.2473V3.80219H27.7188V19.5978C29.3366 19.6106 32.5018 19.5212 37.0009 18.8569C39.4195 18.4992 42.4284 17.9403 45.9511 17.0749V19.7224C36.6722 21.9515 30.3991 22.191 27.7188 22.1591V29.1659H45.9511V31.7208H25.1662V1.2473H45.9511ZM104.211 1.30798V12.9487C98.8475 11.3934 94.3963 8.30519 90.7556 5.76946C90.5406 5.6196 90.3289 5.4717 90.1206 5.32606L90.1195 5.32532C87.1131 3.22413 84.7779 1.59209 82.4149 1.31437H79.8623V31.6697H82.4149V3.9012C84.0995 4.22634 86.0821 5.61439 88.4885 7.29922L88.4889 7.29954C88.7533 7.48461 89.0227 7.67325 89.2974 7.86447C93.2572 10.6238 98.1264 14.0122 104.211 15.609V31.6665H106.764V1.30798H104.211ZM64.5049 1.30798L78.8986 31.6665H78.8923H76.0684L67.0512 12.6453C63.6307 14.0984 60.3952 15.3279 57.3575 16.3723L50.1399 31.6665H47.3161L61.646 1.30798H64.5049ZM63.0755 4.25569L58.8955 13.1116C61.1418 12.2972 63.4966 11.3774 65.9567 10.3363L63.0755 4.25569ZM165 19.7255V17.0908C158.478 18.7036 152.415 19.4509 146.729 19.6138V3.80219H164.962V1.2473H144.177V31.7208H164.962V29.1659H146.729V22.1814C152.415 22.0218 158.478 21.2904 165 19.7255ZM126.816 0.733136C130.638 1.01417 133.944 2.56308 136.659 5.35429H136.656C139.659 8.44252 141.181 12.2269 141.181 16.6469C141.181 21.0669 139.655 24.8577 136.65 27.9076C133.65 30.9511 129.911 32.4936 125.536 32.4936C121.161 32.4936 117.409 30.9383 114.384 27.8693C111.378 24.8194 109.853 21.0381 109.853 16.6086C109.853 12.179 111.378 8.36587 114.381 5.27765C117.393 2.18304 121.149 0.611778 125.539 0.611778H126.816V0.733136ZM124.263 3.22096C121.107 3.48284 118.465 4.74751 116.213 7.06287C114.084 9.2505 112.843 11.882 112.508 14.9C112.627 14.9289 112.747 14.9569 112.866 14.9849C112.958 15.0064 113.05 15.0279 113.143 15.0501C120.858 16.8768 129.126 18.8249 138.382 19.4445C138.548 18.5567 138.634 17.6242 138.634 16.6469C138.634 12.8784 137.39 9.76787 134.831 7.13633C132.317 4.5527 129.19 3.24331 125.539 3.24331H124.263V3.22096ZM125.539 29.9419C129.257 29.9419 132.301 28.69 134.837 26.116C136.078 24.8577 137.007 23.478 137.636 21.9611C128.446 21.2904 120.233 19.3551 112.556 17.5379C112.537 17.5331 112.517 17.5283 112.497 17.5235C112.477 17.5187 112.457 17.514 112.438 17.5092C112.62 20.8848 113.858 23.6952 116.206 26.0776C118.768 28.6772 121.822 29.9419 125.539 29.9419Z" fill="#153561"/>
</svg>
